<svg width="710" height="236" viewBox="0 0 710 236" fill="none" xmlns="http://www.w3.org/2000/svg">
<path d="M731.135 204.675C723.952 128.562 621.437 75.4878 542.833 72.6408C452.251 69.3694 415.308 133.601 347.269 110.217C285.178 88.9004 284.225 24.4773 238.436 12.1098C196.355 0.745942 127.474 36.3249 8.46639 223.21" stroke="#FF460F" strokeWidth="0.670179" stroke-miterlimit="10"/>
<path d="M13.3625 232.026C130.905 47.8554 199.889 10.778 242.646 20.4489C274.333 27.6608 285.303 59.4532 309.241 85.0503C321.173 98.2076 336.115 108.156 352.727 114.002C407.137 133.194 441.556 98.2304 501.127 85.4062C516.313 82.0912 531.836 80.6066 547.377 80.9829C626.353 82.632 727.975 129.257 736.892 202.695" stroke="#FF460F" strokeWidth="0.670179" stroke-miterlimit="10"/>
<path d="M18.273 240.817C134.35 59.3732 203.398 20.8084 246.741 28.7951C278.601 34.6687 290.365 65.0092 314.407 89.3693C326.657 102.09 341.587 111.807 358.058 117.779C411.662 137.207 445.912 105.87 505.656 93.7866C520.841 90.6835 536.306 89.1907 551.806 89.3322C631.156 90.032 731.884 129.945 742.533 200.709" stroke="#FF460F" strokeWidth="0.670179" stroke-miterlimit="10"/>
<path d="M23.1716 249.581C137.756 70.9013 206.905 30.8641 250.887 37.1299C282.945 41.6926 295.453 70.5526 319.638 93.6907C332.178 105.966 347.083 115.456 363.401 121.557C416.25 141.223 450.217 113.494 510.199 102.167C525.39 99.2416 540.816 97.7278 556.287 97.644C636.006 97.2504 735.833 130.596 748.215 198.685" stroke="#FF460F" strokeWidth="0.670179" stroke-miterlimit="10"/>
<path d="M28.0673 258.41C141.188 82.4177 210.386 40.9315 255.045 45.4782C287.262 48.7412 300.578 76.124 324.894 98.0003C337.734 109.836 352.641 119.111 368.834 125.339C420.928 145.243 454.65 121.136 514.895 110.554C530.061 107.842 545.413 106.323 560.817 106.011C640.917 104.524 739.843 131.315 753.971 196.731" stroke="#FF460F" strokeWidth="0.670179" stroke-miterlimit="10"/>
<path d="M32.9127 267.211C144.607 93.933 213.96 49.7346 259.204 53.8129C291.501 56.6876 305.707 81.6035 330.124 102.321C343.259 113.698 358.167 122.757 374.229 129.119C425.567 149.261 459.019 128.776 519.437 118.947C534.59 116.413 549.891 114.876 565.246 114.346C645.729 111.714 743.752 131.99 759.613 194.745" stroke="#FF460F" strokeWidth="0.670179" stroke-miterlimit="10"/>
<path d="M37.8739 276.017C148.038 105.461 217.345 61.1555 263.354 62.0808C295.842 62.8991 310.859 87.1616 335.367 106.655C348.781 117.568 363.693 126.415 379.623 132.912C430.207 153.291 463.426 136.416 524.031 127.342C539.172 125.003 554.423 123.456 569.726 122.709C650.589 118.984 747.714 132.653 765.306 192.773" stroke="#FF460F" strokeWidth="0.670179" stroke-miterlimit="10"/>
<path d="M42.7704 284.82C151.432 116.975 220.814 71.1949 267.51 70.4931C300.133 69.9582 316.041 92.6037 340.61 110.963C354.292 121.402 369.215 130.034 385.019 136.652C434.834 157.282 467.822 144.043 528.627 135.685C542.775 133.756 557.866 131.978 574.208 131.006C655.467 126.151 751.674 133.356 771 190.775" stroke="#FF460F" strokeWidth="0.670179" stroke-miterlimit="10"/>
<path d="M47.6674 293.623C154.889 128.503 224.278 81.3764 271.657 78.7989C304.423 77.0288 321.236 98.058 345.881 115.257C359.832 125.217 374.773 133.651 390.454 140.419C439.513 161.287 472.244 151.644 533.26 144.067C547.465 142.299 562.517 140.545 578.74 139.345C660.278 133.365 755.635 134.044 776.694 188.777" stroke="#FF460F" strokeWidth="0.670179" stroke-miterlimit="10"/>
<path d="M52.578 302.413C158.321 140.017 227.743 91.5318 275.815 87.1705C308.711 84.1776 326.494 103.541 351.085 119.588C365.287 129.062 380.244 137.302 395.797 144.22C444.114 165.327 476.6 159.307 537.818 152.42C552.016 150.808 567.081 149.055 583.185 147.64C665.197 140.48 759.599 134.654 782.391 186.725" stroke="#FF460F" strokeWidth="0.670179" stroke-miterlimit="10"/>
<path d="M57.4746 311.216C161.741 151.531 231.206 101.713 279.936 95.5002C312.96 91.2976 331.664 108.967 356.302 123.918C370.752 132.887 385.736 140.929 401.166 147.996C448.716 169.341 480.957 166.931 542.384 160.864C556.638 159.438 571.665 157.669 587.637 156.052C670.034 147.708 763.519 135.404 788.07 184.803" stroke="#FF460F" strokeWidth="0.670179" stroke-miterlimit="10"/>
<path d="M62.3716 320.018C165.172 163.057 234.696 111.894 284.121 103.832C317.287 98.4333 336.925 114.384 361.559 128.236C375.72 136.193 390.224 144.232 406.587 151.773C453.382 173.344 485.378 174.569 547.004 169.244C561.29 167.989 576.292 166.207 592.169 164.389C674.952 154.86 767.533 136.079 793.803 182.817" stroke="#FF460F" strokeWidth="0.670179" stroke-miterlimit="10"/>
<path d="M67.2688 328.821C168.603 174.622 238.095 122.096 288.268 112.174C321.575 105.566 342.187 119.773 366.803 132.553C381.329 140.096 395.881 147.929 411.983 155.549C458.021 177.397 489.761 182.193 551.6 177.623C565.916 176.553 580.906 174.757 596.626 172.721C679.781 161.982 771.47 136.75 799.472 180.827" stroke="#FF460F" strokeWidth="0.670179" stroke-miterlimit="10"/>
<path d="M72.1395 337.622C172.023 186.094 241.633 132.317 292.414 120.516C325.861 112.738 347.449 125.149 372.046 136.882C386.95 143.986 401.536 151.624 417.326 159.334C462.624 181.382 494.092 189.839 556.194 186.027C570.555 185.116 585.507 183.305 601.106 181.081C684.649 169.104 775.432 137.421 805.167 178.837" stroke="#FF460F" strokeWidth="0.670179" stroke-miterlimit="10"/>
<path d="M77.0762 346.413C175.456 197.605 245.083 142.56 296.575 128.844C330.176 119.883 352.727 130.484 377.278 141.182C392.562 147.834 407.206 155.306 422.775 163.096C467.292 185.382 498.541 197.451 560.791 194.392C575.806 193.495 590.763 191.816 605.604 189.362C689.505 176.212 779.433 138.118 810.864 176.832" stroke="#FF460F" strokeWidth="0.670179" stroke-miterlimit="10"/>
<path d="M81.9728 355.215C178.888 209.129 248.635 152.766 300.683 137.168C334.437 127.037 357.966 135.803 382.535 145.496C398.198 151.683 412.876 158.986 428.171 166.868C471.946 189.393 502.937 205.085 565.361 202.767C580.355 202.067 595.285 200.385 610.059 197.731C694.365 183.241 783.358 138.783 816.575 174.788" stroke="#FF460F" strokeWidth="0.670179" stroke-miterlimit="10"/>
<path d="M86.8695 364.017C182.307 220.639 252.184 163.064 304.882 145.495C338.762 134.219 363.284 141.098 387.767 149.793C403.81 155.502 418.519 162.676 433.554 170.638C476.561 193.401 507.321 212.705 569.982 211.143C584.955 210.623 599.861 208.925 614.567 206.062C699.208 190.359 787.321 139.462 822.269 172.845" stroke="#FF460F" strokeWidth="0.670179" stroke-miterlimit="10"/>
<path d="M91.7795 372.814C185.739 232.192 255.635 173.286 309.032 153.8C343.105 141.354 368.57 146.331 393.004 154.07C409.48 159.278 424.182 166.322 438.957 174.377C481.211 197.356 511.712 220.313 574.587 219.507C589.537 219.159 604.421 217.443 619.059 214.381C704.064 197.397 791.297 140.092 827.979 170.818" stroke="#FF460F" strokeWidth="0.670179" stroke-miterlimit="10"/>
<path d="M96.6763 381.612C189.111 243.625 259.161 183.539 313.194 162.144C347.432 148.553 373.841 151.602 398.251 158.425C415.069 163.166 429.867 170.059 444.356 178.193C485.855 201.44 516.113 228 579.189 227.91C594.117 227.734 608.981 226.001 623.549 222.738C708.92 204.461 795.334 140.813 833.687 168.839" stroke="#FF460F" strokeWidth="0.670179" stroke-miterlimit="10"/>
<path d="M101.573 390.409C192.596 255.13 262.701 193.794 317.347 170.398C351.776 155.649 379.117 156.741 403.504 162.622C420.707 166.781 435.521 173.637 449.761 181.878C490.493 205.366 520.507 235.543 583.796 236.235C598.7 236.237 613.547 234.486 628.043 231.017C713.769 211.406 799.251 141.357 839.4 166.754" stroke="#FF460F" strokeWidth="0.670179" stroke-miterlimit="10"/>
<path d="M106.484 399.194C196.03 266.622 266.238 204.117 321.461 178.69C356.067 162.809 384.329 161.917 408.691 166.895C426.279 170.485 441.134 177.278 455.103 185.573C495.092 209.316 524.862 243.124 588.352 244.559C603.235 244.726 618.071 242.958 632.499 239.296C718.52 218.244 803.177 141.993 845.087 164.704" stroke="#FF460F" strokeWidth="0.670179" stroke-miterlimit="10"/>
<path d="M111.367 407.992C254.299 197.211 350.524 160.5 413.993 171.174C483.278 182.824 507.037 249.956 593.008 252.928C693.861 256.4 799.81 139.224 850.824 162.669" stroke="#FF460F" strokeWidth="0.670179" stroke-miterlimit="10"/>
</svg>
