<svg width="243" height="84" viewBox="0 0 243 84" fill="none" xmlns="http://www.w3.org/2000/svg">
<path d="M233.529 57.9347C237.785 62.1906 237.139 69.2794 232.172 72.6657C226.387 76.6054 220.063 79.4251 213.514 81.138C203.448 83.7733 192.841 83.7733 182.787 81.138C176.239 79.4251 169.914 76.6054 164.13 72.6657C159.162 69.2794 158.517 62.1906 162.773 57.9347C162.812 57.8952 162.865 57.8424 162.904 57.8029C166.132 54.5747 171.218 54.0082 174.987 56.5775C178.94 59.2655 183.248 61.2024 187.715 62.3619C194.554 64.1539 201.761 64.1539 208.599 62.3619C213.066 61.1892 217.375 59.2655 221.328 56.5775C225.096 54.0082 230.182 54.5747 233.41 57.7897L233.542 57.9215L233.529 57.9347Z" fill="#1EFFBC"/>
<path d="M231.935 10.8019C226.074 4.94099 216.572 4.94099 210.711 10.8019C204.85 16.6628 204.85 26.1651 210.711 32.026C216.572 37.8869 226.074 37.8869 231.935 32.026C237.796 26.1651 237.796 16.6628 231.935 10.8019Z" fill="#1EFFBC"/>
<path d="M185.545 10.7983C179.684 4.93739 170.182 4.93739 164.321 10.7983C158.46 16.6592 158.46 26.1615 164.321 32.0224C170.182 37.8833 179.684 37.8833 185.545 32.0224C191.406 26.1615 191.406 16.6592 185.545 10.7983Z" fill="#1EFFBC"/>
<path d="M141.506 35.6405H131.545V25.6793C131.545 20.1716 127.078 15.7181 121.584 15.7181C116.076 15.7181 111.623 20.1848 111.623 25.6793V35.6405H101.661C96.1538 35.6405 91.7002 40.1073 91.7002 45.6018C91.7002 51.1094 96.1669 55.563 101.661 55.563H111.623V65.5242C111.623 71.0319 116.089 75.4855 121.584 75.4855C127.092 75.4855 131.545 71.0187 131.545 65.5242V55.563H141.506C147.014 55.563 151.468 51.0963 151.468 45.6018C151.468 40.0941 147.001 35.6405 141.506 35.6405Z" fill="white"/>
<path d="M80.4214 57.9347C84.6774 62.1907 84.0317 69.2795 79.0643 72.6658C73.2799 76.6055 66.9553 79.4252 60.4068 81.1381C50.3401 83.7733 39.7332 83.7733 29.6798 81.1381C23.1312 79.4252 16.8066 76.6055 11.0223 72.6658C6.05481 69.2795 5.40918 62.1907 9.6651 57.9347C9.70463 57.8952 9.75733 57.8425 9.79686 57.803C13.025 54.5748 18.1111 54.0082 21.8795 56.5776C25.6479 59.147 30.141 61.2025 34.6077 62.362C41.4462 64.1539 48.6536 64.1539 55.492 62.362C59.9588 61.1893 64.2674 59.2655 68.2203 56.5776C71.9887 54.0082 77.0747 54.5748 80.3029 57.7898L80.4346 57.9216L80.4214 57.9347Z" fill="#FFE155"/>
<path d="M78.8425 10.8003C72.9817 4.93941 63.4793 4.93941 57.6184 10.8003C51.7575 16.6612 51.7575 26.1635 57.6184 32.0244C63.4793 37.8853 72.9817 37.8853 78.8425 32.0244C84.7034 26.1635 84.7034 16.6612 78.8425 10.8003Z" fill="#FFE155"/>
<path d="M32.4431 10.8059C26.5822 4.94503 17.0799 4.94503 11.219 10.8059C5.35811 16.6668 5.35812 26.1692 11.219 32.03C17.0799 37.8909 26.5822 37.8909 32.4431 32.03C38.304 26.1692 38.304 16.6668 32.4431 10.8059Z" fill="#FFE155"/>
</svg>
